<svg xmlns:x="http://ns.adobe.com/Extensibility/1.0/" xmlns:i="http://ns.adobe.com/AdobeIllustrator/10.0/" xmlns:graph="http://ns.adobe.com/Graphs/1.0/" xmlns="http://www.w3.org/2000/svg" xmlns:xlink="http://www.w3.org/1999/xlink" version="1.1" x="0px" y="0px" viewBox="0 0 64 64" enable-background="new 0 0 64 64" xml:space="preserve"><metadata><sfw xmlns="http://ns.adobe.com/SaveForWeb/1.0/"><slices></slices><sliceSourceBounds y="-8161" x="-8165" width="16389" height="16385" bottomLeftOrigin="true"></sliceSourceBounds></sfw></metadata><g><g><path d="M32,5.5C17.388,5.5,5.5,17.388,5.5,32S17.388,58.5,32,58.5S58.5,46.612,58.5,32S46.612,5.5,32,5.5z M32,57.5    C17.939,57.5,6.5,46.061,6.5,32S17.939,6.5,32,6.5S57.5,17.939,57.5,32S46.061,57.5,32,57.5z"></path><path d="M32,9.5C19.593,9.5,9.5,19.593,9.5,32c0,12.406,10.093,22.5,22.5,22.5c12.406,0,22.5-10.094,22.5-22.5    C54.5,19.593,44.406,9.5,32,9.5z M32,53.5c-11.855,0-21.5-9.645-21.5-21.5c0-11.855,9.645-21.5,21.5-21.5    c11.855,0,21.5,9.645,21.5,21.5C53.5,43.855,43.855,53.5,32,53.5z"></path><path d="M40.207,20.545c-0.25-0.113-0.547-0.003-0.662,0.248l-9.702,21.344l-5.49-5.49c-0.195-0.195-0.512-0.195-0.707,0    s-0.195,0.512,0,0.707l6,6C29.741,43.448,29.869,43.5,30,43.5c0.03,0,0.06-0.003,0.089-0.008c0.161-0.029,0.298-0.136,0.366-0.285    l10-22C40.569,20.956,40.458,20.659,40.207,20.545z"></path></g></g></svg>