<svg xmlns="http://www.w3.org/2000/svg" xmlns:xlink="http://www.w3.org/1999/xlink" viewBox="0 0 18 4" version="1.1" x="0px" y="0px"><title>Combined Shape</title><desc>Created with Sketch.</desc><g stroke="none" stroke-width="1" fill="none" fill-rule="evenodd"><g transform="translate(-117.000000, -23.000000)" fill-rule="nonzero" fill="#000000"><path d="M119,27 C117.895431,27 117,26.1045695 117,25 C117,23.8954305 117.895431,23 119,23 C120.104569,23 121,23.8954305 121,25 C121,26.1045695 120.104569,27 119,27 Z M126,27 C124.895431,27 124,26.1045695 124,25 C124,23.8954305 124.895431,23 126,23 C127.104569,23 128,23.8954305 128,25 C128,26.1045695 127.104569,27 126,27 Z M133,27 C131.895431,27 131,26.1045695 131,25 C131,23.8954305 131.895431,23 133,23 C134.104569,23 135,23.8954305 135,25 C135,26.1045695 134.104569,27 133,27 Z"></path></g></g></svg>