<svg xmlns="http://www.w3.org/2000/svg" xmlns:xlink="http://www.w3.org/1999/xlink" version="1.1" x="0px" y="0px" viewBox="0 0 100 100" enable-background="new 0 0 100 100" xml:space="preserve"><g><g><path d="M50.037,94.98c-24.73,0-44.849-20.119-44.849-44.849c0-24.73,20.119-44.849,44.849-44.849    c24.73,0,44.849,20.119,44.849,44.849C94.886,74.86,74.766,94.98,50.037,94.98z M50.037,9.254    c-22.54,0-40.877,18.337-40.877,40.877c0,22.539,18.337,40.877,40.877,40.877c22.539,0,40.877-18.337,40.877-40.877    C90.914,27.591,72.576,9.254,50.037,9.254z"></path></g></g><g><g><path d="M48.407,74.11h-4.538V43.009h12.336v23.303C56.205,70.612,52.706,74.11,48.407,74.11z M47.84,70.138h0.566    c2.11,0,3.826-1.716,3.826-3.826V46.981H47.84V70.138z"></path></g><g><path d="M50.037,38.562c-3.421,0-6.205-2.784-6.205-6.206s2.784-6.205,6.205-6.205s6.205,2.783,6.205,6.205    S53.458,38.562,50.037,38.562z M50.037,30.123c-1.232,0-2.233,1.002-2.233,2.233c0,1.232,1.002,2.234,2.233,2.234    s2.233-1.002,2.233-2.234C52.27,31.125,51.268,30.123,50.037,30.123z"></path></g></g></svg>